<svg xmlns="http://www.w3.org/2000/svg" xmlns:xlink="http://www.w3.org/1999/xlink" width="1000" zoomAndPan="magnify" viewBox="0 0 750 225" height="300" preserveAspectRatio="xMidYMid meet" version="1.0"><defs><filter x="0%" y="0%" width="100%" height="100%" id="9ea292b0ee"><feColorMatrix values="0 0 0 0 1 0 0 0 0 1 0 0 0 0 1 0 0 0 1 0" color-interpolation-filters="sRGB"/></filter><g/><mask id="4ec8337500"><g filter="url(#9ea292b0ee)"><rect x="-75" width="900" fill="#000000" y="-22.5" height="270" fill-opacity="0.85"/></g></mask><clipPath id="764fcf1012"><rect x="0" width="162" y="0" height="216"/></clipPath><mask id="f789247c04"><g filter="url(#9ea292b0ee)"><rect x="-75" width="900" fill="#000000" y="-22.5" height="270" fill-opacity="0.75"/></g></mask><clipPath id="0b4a196f0b"><rect x="0" width="73" y="0" height="222"/></clipPath><mask id="1029d73d12"><g filter="url(#9ea292b0ee)"><rect x="-75" width="900" fill="#000000" y="-22.5" height="270" fill-opacity="0.65"/></g></mask><clipPath id="016af908f4"><rect x="0" width="184" y="0" height="216"/></clipPath></defs><rect x="-75" width="900" fill="#ffffff" y="-22.5" height="270" fill-opacity="1"/><rect x="-75" width="900" fill="#000000" y="-22.5" height="270" fill-opacity="1"/><g fill="#ff3131" fill-opacity="0.302"><g transform="translate(14.723891, 186.370874)"><g><path d="M 29.34375 -163.5 C 32.726562 -163.5 36.148438 -163.5 39.609375 -163.5 C 43.066406 -163.5 46.484375 -163.5 49.859375 -163.5 C 58.835938 -163.644531 68.101562 -163.015625 77.65625 -161.609375 C 87.21875 -160.210938 96.117188 -157.828125 104.359375 -154.453125 C 122.015625 -147.242188 134.375 -135.625 141.4375 -119.59375 C 144.957031 -111.5 147.234375 -102.671875 148.265625 -93.109375 C 149.296875 -83.546875 149.039062 -74.019531 147.5 -64.53125 C 145.957031 -55.050781 143.050781 -46.335938 138.78125 -38.390625 C 134.519531 -30.453125 128.785156 -24.054688 121.578125 -19.203125 C 114.222656 -14.191406 107.085938 -10.289062 100.171875 -7.5 C 93.253906 -4.707031 86.851562 -2.941406 80.96875 -2.203125 C 74.0625 -1.617188 67.113281 -1.210938 60.125 -0.984375 C 53.132812 -0.765625 46.109375 -0.65625 39.046875 -0.65625 C 35.523438 -0.65625 32 -0.691406 28.46875 -0.765625 C 24.9375 -0.835938 21.332031 -0.953125 17.65625 -1.109375 C 15.59375 -1.109375 13.015625 -0.847656 9.921875 -0.328125 C 6.835938 0.179688 4.410156 -0.515625 2.640625 -2.421875 C 1.171875 -4.191406 0.507812 -6.914062 0.65625 -10.59375 C 0.800781 -14.269531 0.875 -17.210938 0.875 -19.421875 C 1.03125 -32.503906 1.109375 -45.519531 1.109375 -58.46875 C 1.109375 -71.414062 1.179688 -84.359375 1.328125 -97.296875 C 1.328125 -103.472656 1.363281 -109.613281 1.4375 -115.71875 C 1.507812 -121.820312 1.472656 -127.96875 1.328125 -134.15625 C 1.328125 -136.207031 1.101562 -138.664062 0.65625 -141.53125 C 0.21875 -144.40625 0 -147.3125 0 -150.25 C 0 -153.195312 0.476562 -155.847656 1.4375 -158.203125 C 2.394531 -160.554688 4.195312 -162.171875 6.84375 -163.046875 C 7.875 -163.347656 8.898438 -163.535156 9.921875 -163.609375 C 10.953125 -163.679688 11.984375 -163.71875 13.015625 -163.71875 C 15.804688 -163.71875 18.523438 -163.71875 21.171875 -163.71875 C 23.828125 -163.71875 26.550781 -163.644531 29.34375 -163.5 Z M 60.671875 -133.703125 C 57.441406 -133.847656 54.132812 -133.8125 50.75 -133.59375 C 47.363281 -133.375 44.050781 -133.046875 40.8125 -132.609375 C 38.3125 -132.304688 36.726562 -130.832031 36.0625 -128.1875 C 35.40625 -125.539062 35.222656 -122.707031 35.515625 -119.6875 C 35.816406 -116.675781 35.96875 -114.21875 35.96875 -112.3125 C 35.820312 -108.1875 35.75 -103.988281 35.75 -99.71875 C 35.75 -95.457031 35.75 -91.195312 35.75 -86.9375 C 35.75 -78.695312 35.75 -70.382812 35.75 -62 C 35.75 -53.613281 35.75 -45.300781 35.75 -37.0625 C 35.75 -34.269531 37.289062 -32.320312 40.375 -31.21875 C 43.46875 -30.113281 47.179688 -29.5625 51.515625 -29.5625 C 55.859375 -29.5625 60.015625 -29.816406 63.984375 -30.328125 C 67.953125 -30.847656 70.75 -31.179688 72.375 -31.328125 C 78.40625 -32.210938 84.175781 -34.050781 89.6875 -36.84375 C 95.207031 -39.644531 100.023438 -43.320312 104.140625 -47.875 C 108.265625 -52.4375 111.0625 -57.804688 112.53125 -63.984375 C 114 -69.273438 114.804688 -75.007812 114.953125 -81.1875 C 115.097656 -87.375 114.4375 -93.441406 112.96875 -99.390625 C 111.5 -105.347656 108.925781 -110.535156 105.25 -114.953125 C 99.507812 -122.015625 92.738281 -126.867188 84.9375 -129.515625 C 77.144531 -132.160156 69.054688 -133.554688 60.671875 -133.703125 Z M 60.671875 -133.703125 "/></g></g></g><g fill="#ff3131" fill-opacity="0.502"><g transform="translate(11.798334, 183.445319)"><g><path d="M 29.34375 -163.5 C 32.726562 -163.5 36.148438 -163.5 39.609375 -163.5 C 43.066406 -163.5 46.484375 -163.5 49.859375 -163.5 C 58.835938 -163.644531 68.101562 -163.015625 77.65625 -161.609375 C 87.21875 -160.210938 96.117188 -157.828125 104.359375 -154.453125 C 122.015625 -147.242188 134.375 -135.625 141.4375 -119.59375 C 144.957031 -111.5 147.234375 -102.671875 148.265625 -93.109375 C 149.296875 -83.546875 149.039062 -74.019531 147.5 -64.53125 C 145.957031 -55.050781 143.050781 -46.335938 138.78125 -38.390625 C 134.519531 -30.453125 128.785156 -24.054688 121.578125 -19.203125 C 114.222656 -14.191406 107.085938 -10.289062 100.171875 -7.5 C 93.253906 -4.707031 86.851562 -2.941406 80.96875 -2.203125 C 74.0625 -1.617188 67.113281 -1.210938 60.125 -0.984375 C 53.132812 -0.765625 46.109375 -0.65625 39.046875 -0.65625 C 35.523438 -0.65625 32 -0.691406 28.46875 -0.765625 C 24.9375 -0.835938 21.332031 -0.953125 17.65625 -1.109375 C 15.59375 -1.109375 13.015625 -0.847656 9.921875 -0.328125 C 6.835938 0.179688 4.410156 -0.515625 2.640625 -2.421875 C 1.171875 -4.191406 0.507812 -6.914062 0.65625 -10.59375 C 0.800781 -14.269531 0.875 -17.210938 0.875 -19.421875 C 1.03125 -32.503906 1.109375 -45.519531 1.109375 -58.46875 C 1.109375 -71.414062 1.179688 -84.359375 1.328125 -97.296875 C 1.328125 -103.472656 1.363281 -109.613281 1.4375 -115.71875 C 1.507812 -121.820312 1.472656 -127.96875 1.328125 -134.15625 C 1.328125 -136.207031 1.101562 -138.664062 0.65625 -141.53125 C 0.21875 -144.40625 0 -147.3125 0 -150.25 C 0 -153.195312 0.476562 -155.847656 1.4375 -158.203125 C 2.394531 -160.554688 4.195312 -162.171875 6.84375 -163.046875 C 7.875 -163.347656 8.898438 -163.535156 9.921875 -163.609375 C 10.953125 -163.679688 11.984375 -163.71875 13.015625 -163.71875 C 15.804688 -163.71875 18.523438 -163.71875 21.171875 -163.71875 C 23.828125 -163.71875 26.550781 -163.644531 29.34375 -163.5 Z M 60.671875 -133.703125 C 57.441406 -133.847656 54.132812 -133.8125 50.75 -133.59375 C 47.363281 -133.375 44.050781 -133.046875 40.8125 -132.609375 C 38.3125 -132.304688 36.726562 -130.832031 36.0625 -128.1875 C 35.40625 -125.539062 35.222656 -122.707031 35.515625 -119.6875 C 35.816406 -116.675781 35.96875 -114.21875 35.96875 -112.3125 C 35.820312 -108.1875 35.75 -103.988281 35.75 -99.71875 C 35.75 -95.457031 35.75 -91.195312 35.75 -86.9375 C 35.75 -78.695312 35.75 -70.382812 35.75 -62 C 35.75 -53.613281 35.75 -45.300781 35.75 -37.0625 C 35.75 -34.269531 37.289062 -32.320312 40.375 -31.21875 C 43.46875 -30.113281 47.179688 -29.5625 51.515625 -29.5625 C 55.859375 -29.5625 60.015625 -29.816406 63.984375 -30.328125 C 67.953125 -30.847656 70.75 -31.179688 72.375 -31.328125 C 78.40625 -32.210938 84.175781 -34.050781 89.6875 -36.84375 C 95.207031 -39.644531 100.023438 -43.320312 104.140625 -47.875 C 108.265625 -52.4375 111.0625 -57.804688 112.53125 -63.984375 C 114 -69.273438 114.804688 -75.007812 114.953125 -81.1875 C 115.097656 -87.375 114.4375 -93.441406 112.96875 -99.390625 C 111.5 -105.347656 108.925781 -110.535156 105.25 -114.953125 C 99.507812 -122.015625 92.738281 -126.867188 84.9375 -129.515625 C 77.144531 -132.160156 69.054688 -133.554688 60.671875 -133.703125 Z M 60.671875 -133.703125 "/></g></g></g><g fill="#ff3131" fill-opacity="1"><g transform="translate(8.872779, 180.519763)"><g><path d="M 29.34375 -163.5 C 32.726562 -163.5 36.148438 -163.5 39.609375 -163.5 C 43.066406 -163.5 46.484375 -163.5 49.859375 -163.5 C 58.835938 -163.644531 68.101562 -163.015625 77.65625 -161.609375 C 87.21875 -160.210938 96.117188 -157.828125 104.359375 -154.453125 C 122.015625 -147.242188 134.375 -135.625 141.4375 -119.59375 C 144.957031 -111.5 147.234375 -102.671875 148.265625 -93.109375 C 149.296875 -83.546875 149.039062 -74.019531 147.5 -64.53125 C 145.957031 -55.050781 143.050781 -46.335938 138.78125 -38.390625 C 134.519531 -30.453125 128.785156 -24.054688 121.578125 -19.203125 C 114.222656 -14.191406 107.085938 -10.289062 100.171875 -7.5 C 93.253906 -4.707031 86.851562 -2.941406 80.96875 -2.203125 C 74.0625 -1.617188 67.113281 -1.210938 60.125 -0.984375 C 53.132812 -0.765625 46.109375 -0.65625 39.046875 -0.65625 C 35.523438 -0.65625 32 -0.691406 28.46875 -0.765625 C 24.9375 -0.835938 21.332031 -0.953125 17.65625 -1.109375 C 15.59375 -1.109375 13.015625 -0.847656 9.921875 -0.328125 C 6.835938 0.179688 4.410156 -0.515625 2.640625 -2.421875 C 1.171875 -4.191406 0.507812 -6.914062 0.65625 -10.59375 C 0.800781 -14.269531 0.875 -17.210938 0.875 -19.421875 C 1.03125 -32.503906 1.109375 -45.519531 1.109375 -58.46875 C 1.109375 -71.414062 1.179688 -84.359375 1.328125 -97.296875 C 1.328125 -103.472656 1.363281 -109.613281 1.4375 -115.71875 C 1.507812 -121.820312 1.472656 -127.96875 1.328125 -134.15625 C 1.328125 -136.207031 1.101562 -138.664062 0.65625 -141.53125 C 0.21875 -144.40625 0 -147.3125 0 -150.25 C 0 -153.195312 0.476562 -155.847656 1.4375 -158.203125 C 2.394531 -160.554688 4.195312 -162.171875 6.84375 -163.046875 C 7.875 -163.347656 8.898438 -163.535156 9.921875 -163.609375 C 10.953125 -163.679688 11.984375 -163.71875 13.015625 -163.71875 C 15.804688 -163.71875 18.523438 -163.71875 21.171875 -163.71875 C 23.828125 -163.71875 26.550781 -163.644531 29.34375 -163.5 Z M 60.671875 -133.703125 C 57.441406 -133.847656 54.132812 -133.8125 50.75 -133.59375 C 47.363281 -133.375 44.050781 -133.046875 40.8125 -132.609375 C 38.3125 -132.304688 36.726562 -130.832031 36.0625 -128.1875 C 35.40625 -125.539062 35.222656 -122.707031 35.515625 -119.6875 C 35.816406 -116.675781 35.96875 -114.21875 35.96875 -112.3125 C 35.820312 -108.1875 35.75 -103.988281 35.75 -99.71875 C 35.75 -95.457031 35.75 -91.195312 35.75 -86.9375 C 35.75 -78.695312 35.75 -70.382812 35.75 -62 C 35.75 -53.613281 35.75 -45.300781 35.75 -37.0625 C 35.75 -34.269531 37.289062 -32.320312 40.375 -31.21875 C 43.46875 -30.113281 47.179688 -29.5625 51.515625 -29.5625 C 55.859375 -29.5625 60.015625 -29.816406 63.984375 -30.328125 C 67.953125 -30.847656 70.75 -31.179688 72.375 -31.328125 C 78.40625 -32.210938 84.175781 -34.050781 89.6875 -36.84375 C 95.207031 -39.644531 100.023438 -43.320312 104.140625 -47.875 C 108.265625 -52.4375 111.0625 -57.804688 112.53125 -63.984375 C 114 -69.273438 114.804688 -75.007812 114.953125 -81.1875 C 115.097656 -87.375 114.4375 -93.441406 112.96875 -99.390625 C 111.5 -105.347656 108.925781 -110.535156 105.25 -114.953125 C 99.507812 -122.015625 92.738281 -126.867188 84.9375 -129.515625 C 77.144531 -132.160156 69.054688 -133.554688 60.671875 -133.703125 Z M 60.671875 -133.703125 "/></g></g></g><g mask="url(#4ec8337500)"><g transform="matrix(1, 0, 0, 1, 349, 9)"><g clip-path="url(#764fcf1012)"><g fill="#ff3131" fill-opacity="0.302"><g transform="translate(26.426195, 196.874577)"><g><path d="M 0.21875 -63.984375 C 0.0703125 -72.222656 1.691406 -80.421875 5.078125 -88.578125 C 8.460938 -96.742188 13.171875 -103.914062 19.203125 -110.09375 C 24.929688 -115.976562 31.472656 -120.460938 38.828125 -123.546875 C 46.179688 -126.640625 53.757812 -128.1875 61.5625 -128.1875 C 62.289062 -128.1875 63.0625 -128.1875 63.875 -128.1875 C 64.6875 -128.1875 65.457031 -128.1875 66.1875 -128.1875 C 66.1875 -128.1875 66.222656 -128.1875 66.296875 -128.1875 C 66.367188 -128.1875 66.40625 -128.1875 66.40625 -128.1875 C 79.207031 -128.1875 90.5 -125.539062 100.28125 -120.25 C 110.0625 -114.957031 117.742188 -107.601562 123.328125 -98.1875 C 128.921875 -88.769531 131.71875 -77.882812 131.71875 -65.53125 C 131.71875 -46.257812 125.6875 -30.59375 113.625 -18.53125 C 107.738281 -12.644531 100.710938 -8.117188 92.546875 -4.953125 C 84.390625 -1.796875 75.53125 -0.21875 65.96875 -0.21875 C 56.851562 -0.21875 48.359375 -1.875 40.484375 -5.1875 C 32.617188 -8.5 25.707031 -13.054688 19.75 -18.859375 C 13.789062 -24.671875 9.082031 -31.4375 5.625 -39.15625 C 2.164062 -46.882812 0.363281 -55.160156 0.21875 -63.984375 Z M 65.3125 -101.9375 C 60.164062 -101.9375 55.164062 -100.28125 50.3125 -96.96875 C 45.457031 -93.65625 41.445312 -89.390625 38.28125 -84.171875 C 35.113281 -78.953125 33.457031 -73.472656 33.3125 -67.734375 C 33.164062 -61.410156 34.195312 -55.304688 36.40625 -49.421875 C 38.613281 -43.535156 41.992188 -38.609375 46.546875 -34.640625 C 51.109375 -30.671875 56.773438 -28.316406 63.546875 -27.578125 C 71.046875 -26.847656 77.367188 -28.023438 82.515625 -31.109375 C 87.660156 -34.203125 91.628906 -38.429688 94.421875 -43.796875 C 97.222656 -49.160156 98.769531 -55.039062 99.0625 -61.4375 C 99.363281 -67.84375 98.410156 -73.988281 96.203125 -79.875 C 93.992188 -85.757812 90.460938 -90.722656 85.609375 -94.765625 C 80.753906 -98.804688 74.578125 -101.195312 67.078125 -101.9375 C 66.785156 -101.9375 66.488281 -101.9375 66.1875 -101.9375 C 65.894531 -101.9375 65.601562 -101.9375 65.3125 -101.9375 Z M 65.3125 -101.9375 "/></g></g></g><g fill="#ff3131" fill-opacity="0.502"><g transform="translate(13.748793, 184.19717)"><g><path d="M 0.21875 -63.984375 C 0.0703125 -72.222656 1.691406 -80.421875 5.078125 -88.578125 C 8.460938 -96.742188 13.171875 -103.914062 19.203125 -110.09375 C 24.929688 -115.976562 31.472656 -120.460938 38.828125 -123.546875 C 46.179688 -126.640625 53.757812 -128.1875 61.5625 -128.1875 C 62.289062 -128.1875 63.0625 -128.1875 63.875 -128.1875 C 64.6875 -128.1875 65.457031 -128.1875 66.1875 -128.1875 C 66.1875 -128.1875 66.222656 -128.1875 66.296875 -128.1875 C 66.367188 -128.1875 66.40625 -128.1875 66.40625 -128.1875 C 79.207031 -128.1875 90.5 -125.539062 100.28125 -120.25 C 110.0625 -114.957031 117.742188 -107.601562 123.328125 -98.1875 C 128.921875 -88.769531 131.71875 -77.882812 131.71875 -65.53125 C 131.71875 -46.257812 125.6875 -30.59375 113.625 -18.53125 C 107.738281 -12.644531 100.710938 -8.117188 92.546875 -4.953125 C 84.390625 -1.796875 75.53125 -0.21875 65.96875 -0.21875 C 56.851562 -0.21875 48.359375 -1.875 40.484375 -5.1875 C 32.617188 -8.5 25.707031 -13.054688 19.75 -18.859375 C 13.789062 -24.671875 9.082031 -31.4375 5.625 -39.15625 C 2.164062 -46.882812 0.363281 -55.160156 0.21875 -63.984375 Z M 65.3125 -101.9375 C 60.164062 -101.9375 55.164062 -100.28125 50.3125 -96.96875 C 45.457031 -93.65625 41.445312 -89.390625 38.28125 -84.171875 C 35.113281 -78.953125 33.457031 -73.472656 33.3125 -67.734375 C 33.164062 -61.410156 34.195312 -55.304688 36.40625 -49.421875 C 38.613281 -43.535156 41.992188 -38.609375 46.546875 -34.640625 C 51.109375 -30.671875 56.773438 -28.316406 63.546875 -27.578125 C 71.046875 -26.847656 77.367188 -28.023438 82.515625 -31.109375 C 87.660156 -34.203125 91.628906 -38.429688 94.421875 -43.796875 C 97.222656 -49.160156 98.769531 -55.039062 99.0625 -61.4375 C 99.363281 -67.84375 98.410156 -73.988281 96.203125 -79.875 C 93.992188 -85.757812 90.460938 -90.722656 85.609375 -94.765625 C 80.753906 -98.804688 74.578125 -101.195312 67.078125 -101.9375 C 66.785156 -101.9375 66.488281 -101.9375 66.1875 -101.9375 C 65.894531 -101.9375 65.601562 -101.9375 65.3125 -101.9375 Z M 65.3125 -101.9375 "/></g></g></g><g fill="#ff3131" fill-opacity="1"><g transform="translate(1.071392, 171.519762)"><g><path d="M 0.21875 -63.984375 C 0.0703125 -72.222656 1.691406 -80.421875 5.078125 -88.578125 C 8.460938 -96.742188 13.171875 -103.914062 19.203125 -110.09375 C 24.929688 -115.976562 31.472656 -120.460938 38.828125 -123.546875 C 46.179688 -126.640625 53.757812 -128.1875 61.5625 -128.1875 C 62.289062 -128.1875 63.0625 -128.1875 63.875 -128.1875 C 64.6875 -128.1875 65.457031 -128.1875 66.1875 -128.1875 C 66.1875 -128.1875 66.222656 -128.1875 66.296875 -128.1875 C 66.367188 -128.1875 66.40625 -128.1875 66.40625 -128.1875 C 79.207031 -128.1875 90.5 -125.539062 100.28125 -120.25 C 110.0625 -114.957031 117.742188 -107.601562 123.328125 -98.1875 C 128.921875 -88.769531 131.71875 -77.882812 131.71875 -65.53125 C 131.71875 -46.257812 125.6875 -30.59375 113.625 -18.53125 C 107.738281 -12.644531 100.710938 -8.117188 92.546875 -4.953125 C 84.390625 -1.796875 75.53125 -0.21875 65.96875 -0.21875 C 56.851562 -0.21875 48.359375 -1.875 40.484375 -5.1875 C 32.617188 -8.5 25.707031 -13.054688 19.75 -18.859375 C 13.789062 -24.671875 9.082031 -31.4375 5.625 -39.15625 C 2.164062 -46.882812 0.363281 -55.160156 0.21875 -63.984375 Z M 65.3125 -101.9375 C 60.164062 -101.9375 55.164062 -100.28125 50.3125 -96.96875 C 45.457031 -93.65625 41.445312 -89.390625 38.28125 -84.171875 C 35.113281 -78.953125 33.457031 -73.472656 33.3125 -67.734375 C 33.164062 -61.410156 34.195312 -55.304688 36.40625 -49.421875 C 38.613281 -43.535156 41.992188 -38.609375 46.546875 -34.640625 C 51.109375 -30.671875 56.773438 -28.316406 63.546875 -27.578125 C 71.046875 -26.847656 77.367188 -28.023438 82.515625 -31.109375 C 87.660156 -34.203125 91.628906 -38.429688 94.421875 -43.796875 C 97.222656 -49.160156 98.769531 -55.039062 99.0625 -61.4375 C 99.363281 -67.84375 98.410156 -73.988281 96.203125 -79.875 C 93.992188 -85.757812 90.460938 -90.722656 85.609375 -94.765625 C 80.753906 -98.804688 74.578125 -101.195312 67.078125 -101.9375 C 66.785156 -101.9375 66.488281 -101.9375 66.1875 -101.9375 C 65.894531 -101.9375 65.601562 -101.9375 65.3125 -101.9375 Z M 65.3125 -101.9375 "/></g></g></g></g></g></g><g mask="url(#f789247c04)"><g transform="matrix(1, 0, 0, 1, 503, 3)"><g clip-path="url(#0b4a196f0b)"><g fill="#ff3131" fill-opacity="0.302"><g transform="translate(34.643396, 208.72569)"><g><path d="M 32.875 -3.09375 C 31.84375 -1.769531 30.367188 -1.03125 28.453125 -0.875 C 26.546875 -0.726562 24.5625 -0.507812 22.5 -0.21875 C 20.59375 -0.0703125 18.351562 0.0703125 15.78125 0.21875 C 13.207031 0.363281 10.78125 0.109375 8.5 -0.546875 C 6.21875 -1.210938 4.488281 -2.578125 3.3125 -4.640625 C 1.539062 -7.867188 0.507812 -11.429688 0.21875 -15.328125 C -0.0703125 -19.234375 0 -23.207031 0.4375 -27.25 C 0.882812 -31.289062 1.109375 -35.078125 1.109375 -38.609375 C 1.253906 -45.523438 1.363281 -52.398438 1.4375 -59.234375 C 1.507812 -66.078125 1.617188 -72.957031 1.765625 -79.875 C 1.910156 -93.550781 1.945312 -107.265625 1.875 -121.015625 C 1.800781 -134.773438 1.617188 -148.492188 1.328125 -162.171875 C 1.328125 -165.992188 2.132812 -168.75 3.75 -170.4375 C 5.363281 -172.132812 7.492188 -173.128906 10.140625 -173.421875 C 12.796875 -173.710938 15.664062 -173.640625 18.75 -173.203125 C 21.84375 -172.765625 24.785156 -172.394531 27.578125 -172.09375 C 30.671875 -171.800781 32.691406 -170.144531 33.640625 -167.125 C 34.597656 -164.113281 35.039062 -160.878906 34.96875 -157.421875 C 34.894531 -153.960938 34.785156 -151.207031 34.640625 -149.15625 C 34.347656 -142.382812 34.164062 -135.539062 34.09375 -128.625 C 34.019531 -121.71875 33.984375 -114.804688 33.984375 -107.890625 C 33.984375 -91.117188 33.984375 -74.347656 33.984375 -57.578125 C 33.984375 -40.816406 33.984375 -24.050781 33.984375 -7.28125 C 33.984375 -5.519531 33.613281 -4.125 32.875 -3.09375 Z M 32.875 -3.09375 "/></g></g></g><g fill="#ff3131" fill-opacity="0.502"><g transform="translate(19.040466, 193.122727)"><g><path d="M 32.875 -3.09375 C 31.84375 -1.769531 30.367188 -1.03125 28.453125 -0.875 C 26.546875 -0.726562 24.5625 -0.507812 22.5 -0.21875 C 20.59375 -0.0703125 18.351562 0.0703125 15.78125 0.21875 C 13.207031 0.363281 10.78125 0.109375 8.5 -0.546875 C 6.21875 -1.210938 4.488281 -2.578125 3.3125 -4.640625 C 1.539062 -7.867188 0.507812 -11.429688 0.21875 -15.328125 C -0.0703125 -19.234375 0 -23.207031 0.4375 -27.25 C 0.882812 -31.289062 1.109375 -35.078125 1.109375 -38.609375 C 1.253906 -45.523438 1.363281 -52.398438 1.4375 -59.234375 C 1.507812 -66.078125 1.617188 -72.957031 1.765625 -79.875 C 1.910156 -93.550781 1.945312 -107.265625 1.875 -121.015625 C 1.800781 -134.773438 1.617188 -148.492188 1.328125 -162.171875 C 1.328125 -165.992188 2.132812 -168.75 3.75 -170.4375 C 5.363281 -172.132812 7.492188 -173.128906 10.140625 -173.421875 C 12.796875 -173.710938 15.664062 -173.640625 18.75 -173.203125 C 21.84375 -172.765625 24.785156 -172.394531 27.578125 -172.09375 C 30.671875 -171.800781 32.691406 -170.144531 33.640625 -167.125 C 34.597656 -164.113281 35.039062 -160.878906 34.96875 -157.421875 C 34.894531 -153.960938 34.785156 -151.207031 34.640625 -149.15625 C 34.347656 -142.382812 34.164062 -135.539062 34.09375 -128.625 C 34.019531 -121.71875 33.984375 -114.804688 33.984375 -107.890625 C 33.984375 -91.117188 33.984375 -74.347656 33.984375 -57.578125 C 33.984375 -40.816406 33.984375 -24.050781 33.984375 -7.28125 C 33.984375 -5.519531 33.613281 -4.125 32.875 -3.09375 Z M 32.875 -3.09375 "/></g></g></g><g fill="#ff3131" fill-opacity="1"><g transform="translate(3.437479, 177.519763)"><g><path d="M 32.875 -3.09375 C 31.84375 -1.769531 30.367188 -1.03125 28.453125 -0.875 C 26.546875 -0.726562 24.5625 -0.507812 22.5 -0.21875 C 20.59375 -0.0703125 18.351562 0.0703125 15.78125 0.21875 C 13.207031 0.363281 10.78125 0.109375 8.5 -0.546875 C 6.21875 -1.210938 4.488281 -2.578125 3.3125 -4.640625 C 1.539062 -7.867188 0.507812 -11.429688 0.21875 -15.328125 C -0.0703125 -19.234375 0 -23.207031 0.4375 -27.25 C 0.882812 -31.289062 1.109375 -35.078125 1.109375 -38.609375 C 1.253906 -45.523438 1.363281 -52.398438 1.4375 -59.234375 C 1.507812 -66.078125 1.617188 -72.957031 1.765625 -79.875 C 1.910156 -93.550781 1.945312 -107.265625 1.875 -121.015625 C 1.800781 -134.773438 1.617188 -148.492188 1.328125 -162.171875 C 1.328125 -165.992188 2.132812 -168.75 3.75 -170.4375 C 5.363281 -172.132812 7.492188 -173.128906 10.140625 -173.421875 C 12.796875 -173.710938 15.664062 -173.640625 18.75 -173.203125 C 21.84375 -172.765625 24.785156 -172.394531 27.578125 -172.09375 C 30.671875 -171.800781 32.691406 -170.144531 33.640625 -167.125 C 34.597656 -164.113281 35.039062 -160.878906 34.96875 -157.421875 C 34.894531 -153.960938 34.785156 -151.207031 34.640625 -149.15625 C 34.347656 -142.382812 34.164062 -135.539062 34.09375 -128.625 C 34.019531 -121.71875 33.984375 -114.804688 33.984375 -107.890625 C 33.984375 -91.117188 33.984375 -74.347656 33.984375 -57.578125 C 33.984375 -40.816406 33.984375 -24.050781 33.984375 -7.28125 C 33.984375 -5.519531 33.613281 -4.125 32.875 -3.09375 Z M 32.875 -3.09375 "/></g></g></g></g></g></g><g mask="url(#1029d73d12)"><g transform="matrix(1, 0, 0, 1, 563, 9)"><g clip-path="url(#016af908f4)"><g fill="#ff3131" fill-opacity="0.302"><g transform="translate(46.540913, 206.2361)"><g><path d="M 88.703125 -9.265625 C 88.109375 -7.054688 87.078125 -5.144531 85.609375 -3.53125 C 83.253906 -0.882812 80.164062 0.289062 76.34375 0 C 72.519531 -0.289062 69.0625 -0.4375 65.96875 -0.4375 C 61.851562 -0.4375 58.546875 -0.617188 56.046875 -0.984375 C 53.546875 -1.359375 51.445312 -2.316406 49.75 -3.859375 C 48.0625 -5.398438 46.367188 -7.9375 44.671875 -11.46875 C 42.984375 -15 40.816406 -19.925781 38.171875 -26.25 C 35.816406 -34.488281 32.765625 -42.726562 29.015625 -50.96875 C 25.265625 -59.207031 21.769531 -67.367188 18.53125 -75.453125 C 18.09375 -76.628906 17.097656 -78.984375 15.546875 -82.515625 C 14.003906 -86.046875 12.238281 -90.09375 10.25 -94.65625 C 8.269531 -99.21875 6.394531 -103.738281 4.625 -108.21875 C 2.863281 -112.707031 1.578125 -116.566406 0.765625 -119.796875 C -0.0351562 -123.035156 -0.0703125 -124.953125 0.65625 -125.546875 C 1.25 -126.128906 1.945312 -126.457031 2.75 -126.53125 C 3.5625 -126.601562 4.335938 -126.640625 5.078125 -126.640625 C 9.191406 -126.492188 13.53125 -126.566406 18.09375 -126.859375 C 22.65625 -127.160156 26.921875 -126.796875 30.890625 -125.765625 C 31.628906 -125.617188 32.625 -124.921875 33.875 -123.671875 C 35.125 -122.421875 36.039062 -121.0625 36.625 -119.59375 C 39.570312 -112.382812 42.515625 -105.0625 45.453125 -97.625 C 48.390625 -90.195312 51.332031 -82.585938 54.28125 -74.796875 C 54.71875 -73.472656 55.453125 -71.523438 56.484375 -68.953125 C 57.515625 -66.378906 58.726562 -63.765625 60.125 -61.109375 C 61.519531 -58.460938 62.988281 -56.296875 64.53125 -54.609375 C 66.082031 -52.921875 67.664062 -52.296875 69.28125 -52.734375 C 70.894531 -53.171875 72.441406 -55.226562 73.921875 -58.90625 C 78.035156 -69.0625 82.078125 -79.210938 86.046875 -89.359375 C 90.015625 -99.503906 94.0625 -109.582031 98.1875 -119.59375 C 98.625 -120.46875 99.0625 -121.347656 99.5 -122.234375 C 99.945312 -123.117188 100.460938 -123.925781 101.046875 -124.65625 C 101.929688 -125.539062 103.695312 -126.3125 106.34375 -126.96875 C 109 -127.632812 111.976562 -128.003906 115.28125 -128.078125 C 118.59375 -128.148438 121.71875 -127.96875 124.65625 -127.53125 C 127.601562 -127.09375 129.882812 -126.25 131.5 -125 C 133.113281 -123.75 133.484375 -122.019531 132.609375 -119.8125 C 125.398438 -101.71875 118.191406 -83.585938 110.984375 -65.421875 C 103.773438 -47.253906 96.640625 -29.125 89.578125 -11.03125 C 89.285156 -10.144531 88.992188 -9.554688 88.703125 -9.265625 Z M 88.703125 -9.265625 "/></g></g></g><g fill="#ff3131" fill-opacity="0.502"><g transform="translate(25.105327, 188.877932)"><g><path d="M 88.703125 -9.265625 C 88.109375 -7.054688 87.078125 -5.144531 85.609375 -3.53125 C 83.253906 -0.882812 80.164062 0.289062 76.34375 0 C 72.519531 -0.289062 69.0625 -0.4375 65.96875 -0.4375 C 61.851562 -0.4375 58.546875 -0.617188 56.046875 -0.984375 C 53.546875 -1.359375 51.445312 -2.316406 49.75 -3.859375 C 48.0625 -5.398438 46.367188 -7.9375 44.671875 -11.46875 C 42.984375 -15 40.816406 -19.925781 38.171875 -26.25 C 35.816406 -34.488281 32.765625 -42.726562 29.015625 -50.96875 C 25.265625 -59.207031 21.769531 -67.367188 18.53125 -75.453125 C 18.09375 -76.628906 17.097656 -78.984375 15.546875 -82.515625 C 14.003906 -86.046875 12.238281 -90.09375 10.25 -94.65625 C 8.269531 -99.21875 6.394531 -103.738281 4.625 -108.21875 C 2.863281 -112.707031 1.578125 -116.566406 0.765625 -119.796875 C -0.0351562 -123.035156 -0.0703125 -124.953125 0.65625 -125.546875 C 1.25 -126.128906 1.945312 -126.457031 2.75 -126.53125 C 3.5625 -126.601562 4.335938 -126.640625 5.078125 -126.640625 C 9.191406 -126.492188 13.53125 -126.566406 18.09375 -126.859375 C 22.65625 -127.160156 26.921875 -126.796875 30.890625 -125.765625 C 31.628906 -125.617188 32.625 -124.921875 33.875 -123.671875 C 35.125 -122.421875 36.039062 -121.0625 36.625 -119.59375 C 39.570312 -112.382812 42.515625 -105.0625 45.453125 -97.625 C 48.390625 -90.195312 51.332031 -82.585938 54.28125 -74.796875 C 54.71875 -73.472656 55.453125 -71.523438 56.484375 -68.953125 C 57.515625 -66.378906 58.726562 -63.765625 60.125 -61.109375 C 61.519531 -58.460938 62.988281 -56.296875 64.53125 -54.609375 C 66.082031 -52.921875 67.664062 -52.296875 69.28125 -52.734375 C 70.894531 -53.171875 72.441406 -55.226562 73.921875 -58.90625 C 78.035156 -69.0625 82.078125 -79.210938 86.046875 -89.359375 C 90.015625 -99.503906 94.0625 -109.582031 98.1875 -119.59375 C 98.625 -120.46875 99.0625 -121.347656 99.5 -122.234375 C 99.945312 -123.117188 100.460938 -123.925781 101.046875 -124.65625 C 101.929688 -125.539062 103.695312 -126.3125 106.34375 -126.96875 C 109 -127.632812 111.976562 -128.003906 115.28125 -128.078125 C 118.59375 -128.148438 121.71875 -127.96875 124.65625 -127.53125 C 127.601562 -127.09375 129.882812 -126.25 131.5 -125 C 133.113281 -123.75 133.484375 -122.019531 132.609375 -119.8125 C 125.398438 -101.71875 118.191406 -83.585938 110.984375 -65.421875 C 103.773438 -47.253906 96.640625 -29.125 89.578125 -11.03125 C 89.285156 -10.144531 88.992188 -9.554688 88.703125 -9.265625 Z M 88.703125 -9.265625 "/></g></g></g><g fill="#ff3131" fill-opacity="1"><g transform="translate(3.669801, 171.519762)"><g><path d="M 88.703125 -9.265625 C 88.109375 -7.054688 87.078125 -5.144531 85.609375 -3.53125 C 83.253906 -0.882812 80.164062 0.289062 76.34375 0 C 72.519531 -0.289062 69.0625 -0.4375 65.96875 -0.4375 C 61.851562 -0.4375 58.546875 -0.617188 56.046875 -0.984375 C 53.546875 -1.359375 51.445312 -2.316406 49.75 -3.859375 C 48.0625 -5.398438 46.367188 -7.9375 44.671875 -11.46875 C 42.984375 -15 40.816406 -19.925781 38.171875 -26.25 C 35.816406 -34.488281 32.765625 -42.726562 29.015625 -50.96875 C 25.265625 -59.207031 21.769531 -67.367188 18.53125 -75.453125 C 18.09375 -76.628906 17.097656 -78.984375 15.546875 -82.515625 C 14.003906 -86.046875 12.238281 -90.09375 10.25 -94.65625 C 8.269531 -99.21875 6.394531 -103.738281 4.625 -108.21875 C 2.863281 -112.707031 1.578125 -116.566406 0.765625 -119.796875 C -0.0351562 -123.035156 -0.0703125 -124.953125 0.65625 -125.546875 C 1.25 -126.128906 1.945312 -126.457031 2.75 -126.53125 C 3.5625 -126.601562 4.335938 -126.640625 5.078125 -126.640625 C 9.191406 -126.492188 13.53125 -126.566406 18.09375 -126.859375 C 22.65625 -127.160156 26.921875 -126.796875 30.890625 -125.765625 C 31.628906 -125.617188 32.625 -124.921875 33.875 -123.671875 C 35.125 -122.421875 36.039062 -121.0625 36.625 -119.59375 C 39.570312 -112.382812 42.515625 -105.0625 45.453125 -97.625 C 48.390625 -90.195312 51.332031 -82.585938 54.28125 -74.796875 C 54.71875 -73.472656 55.453125 -71.523438 56.484375 -68.953125 C 57.515625 -66.378906 58.726562 -63.765625 60.125 -61.109375 C 61.519531 -58.460938 62.988281 -56.296875 64.53125 -54.609375 C 66.082031 -52.921875 67.664062 -52.296875 69.28125 -52.734375 C 70.894531 -53.171875 72.441406 -55.226562 73.921875 -58.90625 C 78.035156 -69.0625 82.078125 -79.210938 86.046875 -89.359375 C 90.015625 -99.503906 94.0625 -109.582031 98.1875 -119.59375 C 98.625 -120.46875 99.0625 -121.347656 99.5 -122.234375 C 99.945312 -123.117188 100.460938 -123.925781 101.046875 -124.65625 C 101.929688 -125.539062 103.695312 -126.3125 106.34375 -126.96875 C 109 -127.632812 111.976562 -128.003906 115.28125 -128.078125 C 118.59375 -128.148438 121.71875 -127.96875 124.65625 -127.53125 C 127.601562 -127.09375 129.882812 -126.25 131.5 -125 C 133.113281 -123.75 133.484375 -122.019531 132.609375 -119.8125 C 125.398438 -101.71875 118.191406 -83.585938 110.984375 -65.421875 C 103.773438 -47.253906 96.640625 -29.125 89.578125 -11.03125 C 89.285156 -10.144531 88.992188 -9.554688 88.703125 -9.265625 Z M 88.703125 -9.265625 "/></g></g></g></g></g></g><g fill="#ff3131" fill-opacity="0.302"><g transform="translate(186.915842, 194.172355)"><g><path d="M 8.390625 -139 C 5.148438 -141.0625 2.796875 -143.96875 1.328125 -147.71875 C -0.140625 -151.46875 -0.210938 -155.550781 1.109375 -159.96875 C 3.609375 -168.644531 9.488281 -173.128906 18.75 -173.421875 L 19.203125 -173.421875 C 23.753906 -173.421875 27.570312 -172.207031 30.65625 -169.78125 C 33.75 -167.351562 35.8125 -164.007812 36.84375 -159.75 C 38.164062 -154.445312 37.648438 -149.585938 35.296875 -145.171875 C 32.941406 -140.765625 28.972656 -137.898438 23.390625 -136.578125 C 20.597656 -135.984375 17.910156 -135.90625 15.328125 -136.34375 C 12.753906 -136.789062 10.441406 -137.675781 8.390625 -139 Z M 5.296875 -116.9375 C 7.359375 -118.257812 10.300781 -118.847656 14.125 -118.703125 C 16.332031 -118.703125 18.757812 -118.773438 21.40625 -118.921875 C 24.050781 -119.066406 26.515625 -118.804688 28.796875 -118.140625 C 31.078125 -117.484375 32.582031 -115.976562 33.3125 -113.625 C 34.632812 -109.945312 35.078125 -105.5 34.640625 -100.28125 C 34.203125 -95.0625 33.984375 -90.539062 33.984375 -86.71875 C 34.128906 -77.738281 34.203125 -68.835938 34.203125 -60.015625 C 34.203125 -51.191406 34.273438 -42.289062 34.421875 -33.3125 C 34.421875 -31.84375 34.601562 -29.378906 34.96875 -25.921875 C 35.332031 -22.460938 35.550781 -18.75 35.625 -14.78125 C 35.707031 -10.8125 35.304688 -7.425781 34.421875 -4.625 C 33.535156 -1.832031 31.769531 -0.363281 29.125 -0.21875 C 25.738281 -0.0703125 22.207031 0.0351562 18.53125 0.109375 C 14.851562 0.179688 11.320312 0 7.9375 -0.4375 C 5.582031 -0.726562 3.960938 -2.015625 3.078125 -4.296875 C 2.203125 -6.578125 1.726562 -9.335938 1.65625 -12.578125 C 1.582031 -15.816406 1.691406 -18.90625 1.984375 -21.84375 C 2.273438 -24.78125 2.421875 -27.0625 2.421875 -28.6875 C 2.273438 -34.71875 2.164062 -40.785156 2.09375 -46.890625 C 2.019531 -52.992188 1.984375 -59.0625 1.984375 -65.09375 C 1.835938 -70.238281 1.765625 -75.382812 1.765625 -80.53125 C 1.765625 -85.675781 1.691406 -90.753906 1.546875 -95.765625 C 1.546875 -100.023438 1.472656 -104.140625 1.328125 -108.109375 C 1.179688 -112.085938 2.503906 -115.03125 5.296875 -116.9375 Z M 5.296875 -116.9375 "/></g></g></g><g fill="#ff3131" fill-opacity="0.502"><g transform="translate(180.089553, 187.346059)"><g><path d="M 8.390625 -139 C 5.148438 -141.0625 2.796875 -143.96875 1.328125 -147.71875 C -0.140625 -151.46875 -0.210938 -155.550781 1.109375 -159.96875 C 3.609375 -168.644531 9.488281 -173.128906 18.75 -173.421875 L 19.203125 -173.421875 C 23.753906 -173.421875 27.570312 -172.207031 30.65625 -169.78125 C 33.75 -167.351562 35.8125 -164.007812 36.84375 -159.75 C 38.164062 -154.445312 37.648438 -149.585938 35.296875 -145.171875 C 32.941406 -140.765625 28.972656 -137.898438 23.390625 -136.578125 C 20.597656 -135.984375 17.910156 -135.90625 15.328125 -136.34375 C 12.753906 -136.789062 10.441406 -137.675781 8.390625 -139 Z M 5.296875 -116.9375 C 7.359375 -118.257812 10.300781 -118.847656 14.125 -118.703125 C 16.332031 -118.703125 18.757812 -118.773438 21.40625 -118.921875 C 24.050781 -119.066406 26.515625 -118.804688 28.796875 -118.140625 C 31.078125 -117.484375 32.582031 -115.976562 33.3125 -113.625 C 34.632812 -109.945312 35.078125 -105.5 34.640625 -100.28125 C 34.203125 -95.0625 33.984375 -90.539062 33.984375 -86.71875 C 34.128906 -77.738281 34.203125 -68.835938 34.203125 -60.015625 C 34.203125 -51.191406 34.273438 -42.289062 34.421875 -33.3125 C 34.421875 -31.84375 34.601562 -29.378906 34.96875 -25.921875 C 35.332031 -22.460938 35.550781 -18.75 35.625 -14.78125 C 35.707031 -10.8125 35.304688 -7.425781 34.421875 -4.625 C 33.535156 -1.832031 31.769531 -0.363281 29.125 -0.21875 C 25.738281 -0.0703125 22.207031 0.0351562 18.53125 0.109375 C 14.851562 0.179688 11.320312 0 7.9375 -0.4375 C 5.582031 -0.726562 3.960938 -2.015625 3.078125 -4.296875 C 2.203125 -6.578125 1.726562 -9.335938 1.65625 -12.578125 C 1.582031 -15.816406 1.691406 -18.90625 1.984375 -21.84375 C 2.273438 -24.78125 2.421875 -27.0625 2.421875 -28.6875 C 2.273438 -34.71875 2.164062 -40.785156 2.09375 -46.890625 C 2.019531 -52.992188 1.984375 -59.0625 1.984375 -65.09375 C 1.835938 -70.238281 1.765625 -75.382812 1.765625 -80.53125 C 1.765625 -85.675781 1.691406 -90.753906 1.546875 -95.765625 C 1.546875 -100.023438 1.472656 -104.140625 1.328125 -108.109375 C 1.179688 -112.085938 2.503906 -115.03125 5.296875 -116.9375 Z M 5.296875 -116.9375 "/></g></g></g><g fill="#ff3131" fill-opacity="1"><g transform="translate(173.26325, 180.519763)"><g><path d="M 8.390625 -139 C 5.148438 -141.0625 2.796875 -143.96875 1.328125 -147.71875 C -0.140625 -151.46875 -0.210938 -155.550781 1.109375 -159.96875 C 3.609375 -168.644531 9.488281 -173.128906 18.75 -173.421875 L 19.203125 -173.421875 C 23.753906 -173.421875 27.570312 -172.207031 30.65625 -169.78125 C 33.75 -167.351562 35.8125 -164.007812 36.84375 -159.75 C 38.164062 -154.445312 37.648438 -149.585938 35.296875 -145.171875 C 32.941406 -140.765625 28.972656 -137.898438 23.390625 -136.578125 C 20.597656 -135.984375 17.910156 -135.90625 15.328125 -136.34375 C 12.753906 -136.789062 10.441406 -137.675781 8.390625 -139 Z M 5.296875 -116.9375 C 7.359375 -118.257812 10.300781 -118.847656 14.125 -118.703125 C 16.332031 -118.703125 18.757812 -118.773438 21.40625 -118.921875 C 24.050781 -119.066406 26.515625 -118.804688 28.796875 -118.140625 C 31.078125 -117.484375 32.582031 -115.976562 33.3125 -113.625 C 34.632812 -109.945312 35.078125 -105.5 34.640625 -100.28125 C 34.203125 -95.0625 33.984375 -90.539062 33.984375 -86.71875 C 34.128906 -77.738281 34.203125 -68.835938 34.203125 -60.015625 C 34.203125 -51.191406 34.273438 -42.289062 34.421875 -33.3125 C 34.421875 -31.84375 34.601562 -29.378906 34.96875 -25.921875 C 35.332031 -22.460938 35.550781 -18.75 35.625 -14.78125 C 35.707031 -10.8125 35.304688 -7.425781 34.421875 -4.625 C 33.535156 -1.832031 31.769531 -0.363281 29.125 -0.21875 C 25.738281 -0.0703125 22.207031 0.0351562 18.53125 0.109375 C 14.851562 0.179688 11.320312 0 7.9375 -0.4375 C 5.582031 -0.726562 3.960938 -2.015625 3.078125 -4.296875 C 2.203125 -6.578125 1.726562 -9.335938 1.65625 -12.578125 C 1.582031 -15.816406 1.691406 -18.90625 1.984375 -21.84375 C 2.273438 -24.78125 2.421875 -27.0625 2.421875 -28.6875 C 2.273438 -34.71875 2.164062 -40.785156 2.09375 -46.890625 C 2.019531 -52.992188 1.984375 -59.0625 1.984375 -65.09375 C 1.835938 -70.238281 1.765625 -75.382812 1.765625 -80.53125 C 1.765625 -85.675781 1.691406 -90.753906 1.546875 -95.765625 C 1.546875 -100.023438 1.472656 -104.140625 1.328125 -108.109375 C 1.179688 -112.085938 2.503906 -115.03125 5.296875 -116.9375 Z M 5.296875 -116.9375 "/></g></g></g><g fill="#ff3131" fill-opacity="0.302"><g transform="translate(247.858698, 198.46317)"><g><path d="M 75.90625 -5.734375 C 67.8125 -1.910156 59.644531 0 51.40625 0 C 46.695312 0 41.507812 -0.660156 35.84375 -1.984375 C 30.1875 -3.304688 24.671875 -5 19.296875 -7.0625 C 13.929688 -9.125 9.191406 -11.332031 5.078125 -13.6875 C 1.984375 -15.445312 0.363281 -17.242188 0.21875 -19.078125 C 0.0703125 -20.921875 0.734375 -22.832031 2.203125 -24.8125 C 3.671875 -26.800781 5.070312 -28.972656 6.40625 -31.328125 C 6.84375 -32.066406 7.316406 -32.765625 7.828125 -33.421875 C 8.347656 -34.085938 8.898438 -34.640625 9.484375 -35.078125 C 11.109375 -36.253906 12.800781 -36.617188 14.5625 -36.171875 C 16.320312 -35.734375 18.046875 -35 19.734375 -33.96875 C 21.429688 -32.945312 22.941406 -32.066406 24.265625 -31.328125 C 28.828125 -28.828125 33.828125 -26.988281 39.265625 -25.8125 C 44.710938 -24.632812 50.007812 -24.191406 55.15625 -24.484375 C 58.976562 -24.785156 62.507812 -25.632812 65.75 -27.03125 C 68.988281 -28.425781 70.898438 -30.375 71.484375 -32.875 C 72.078125 -35.375 70.3125 -38.316406 66.1875 -41.703125 C 60.75 -45.960938 54.976562 -49.488281 48.875 -52.28125 C 42.769531 -55.082031 36.476562 -57.515625 30 -59.578125 C 23.96875 -61.484375 19.113281 -64.347656 15.4375 -68.171875 C 11.757812 -72.003906 9.148438 -76.269531 7.609375 -80.96875 C 6.066406 -85.675781 5.585938 -90.238281 6.171875 -94.65625 C 6.910156 -99.363281 8.75 -103.847656 11.6875 -108.109375 C 14.632812 -112.378906 18.3125 -116.128906 22.71875 -119.359375 C 27.132812 -122.597656 31.914062 -124.804688 37.0625 -125.984375 C 40.007812 -126.722656 42.878906 -127.273438 45.671875 -127.640625 C 48.460938 -128.003906 51.257812 -128.1875 54.0625 -128.1875 C 59.351562 -128.1875 64.570312 -127.5625 69.71875 -126.3125 C 74.863281 -125.0625 79.789062 -123.332031 84.5 -121.125 C 88.769531 -119.21875 91.820312 -117.414062 93.65625 -115.71875 C 95.5 -114.03125 96.160156 -112.007812 95.640625 -109.65625 C 95.128906 -107.300781 93.40625 -103.992188 90.46875 -99.734375 C 88.257812 -96.492188 85.753906 -94.6875 82.953125 -94.3125 C 80.160156 -93.945312 77.144531 -94.351562 73.90625 -95.53125 C 70.675781 -96.707031 67.40625 -98.140625 64.09375 -99.828125 C 60.78125 -101.523438 57.539062 -102.960938 54.375 -104.140625 C 51.21875 -105.316406 48.316406 -105.679688 45.671875 -105.234375 C 43.023438 -104.796875 40.671875 -102.960938 38.609375 -99.734375 C 36.703125 -96.492188 36.148438 -93.660156 36.953125 -91.234375 C 37.765625 -88.804688 39.421875 -86.707031 41.921875 -84.9375 C 44.421875 -83.175781 47.320312 -81.707031 50.625 -80.53125 C 53.9375 -79.351562 57.140625 -78.320312 60.234375 -77.4375 C 63.328125 -76.5625 65.828125 -75.753906 67.734375 -75.015625 C 73.328125 -72.953125 78.769531 -70.453125 84.0625 -67.515625 C 89.351562 -64.578125 93.617188 -60.457031 96.859375 -55.15625 C 101.273438 -47.800781 102.859375 -40.925781 101.609375 -34.53125 C 100.359375 -28.132812 97.378906 -22.472656 92.671875 -17.546875 C 87.960938 -12.617188 82.375 -8.679688 75.90625 -5.734375 Z M 75.90625 -5.734375 "/></g></g></g><g fill="#ff3131" fill-opacity="0.502"><g transform="translate(238.886985, 189.491465)"><g><path d="M 75.90625 -5.734375 C 67.8125 -1.910156 59.644531 0 51.40625 0 C 46.695312 0 41.507812 -0.660156 35.84375 -1.984375 C 30.1875 -3.304688 24.671875 -5 19.296875 -7.0625 C 13.929688 -9.125 9.191406 -11.332031 5.078125 -13.6875 C 1.984375 -15.445312 0.363281 -17.242188 0.21875 -19.078125 C 0.0703125 -20.921875 0.734375 -22.832031 2.203125 -24.8125 C 3.671875 -26.800781 5.070312 -28.972656 6.40625 -31.328125 C 6.84375 -32.066406 7.316406 -32.765625 7.828125 -33.421875 C 8.347656 -34.085938 8.898438 -34.640625 9.484375 -35.078125 C 11.109375 -36.253906 12.800781 -36.617188 14.5625 -36.171875 C 16.320312 -35.734375 18.046875 -35 19.734375 -33.96875 C 21.429688 -32.945312 22.941406 -32.066406 24.265625 -31.328125 C 28.828125 -28.828125 33.828125 -26.988281 39.265625 -25.8125 C 44.710938 -24.632812 50.007812 -24.191406 55.15625 -24.484375 C 58.976562 -24.785156 62.507812 -25.632812 65.75 -27.03125 C 68.988281 -28.425781 70.898438 -30.375 71.484375 -32.875 C 72.078125 -35.375 70.3125 -38.316406 66.1875 -41.703125 C 60.75 -45.960938 54.976562 -49.488281 48.875 -52.28125 C 42.769531 -55.082031 36.476562 -57.515625 30 -59.578125 C 23.96875 -61.484375 19.113281 -64.347656 15.4375 -68.171875 C 11.757812 -72.003906 9.148438 -76.269531 7.609375 -80.96875 C 6.066406 -85.675781 5.585938 -90.238281 6.171875 -94.65625 C 6.910156 -99.363281 8.75 -103.847656 11.6875 -108.109375 C 14.632812 -112.378906 18.3125 -116.128906 22.71875 -119.359375 C 27.132812 -122.597656 31.914062 -124.804688 37.0625 -125.984375 C 40.007812 -126.722656 42.878906 -127.273438 45.671875 -127.640625 C 48.460938 -128.003906 51.257812 -128.1875 54.0625 -128.1875 C 59.351562 -128.1875 64.570312 -127.5625 69.71875 -126.3125 C 74.863281 -125.0625 79.789062 -123.332031 84.5 -121.125 C 88.769531 -119.21875 91.820312 -117.414062 93.65625 -115.71875 C 95.5 -114.03125 96.160156 -112.007812 95.640625 -109.65625 C 95.128906 -107.300781 93.40625 -103.992188 90.46875 -99.734375 C 88.257812 -96.492188 85.753906 -94.6875 82.953125 -94.3125 C 80.160156 -93.945312 77.144531 -94.351562 73.90625 -95.53125 C 70.675781 -96.707031 67.40625 -98.140625 64.09375 -99.828125 C 60.78125 -101.523438 57.539062 -102.960938 54.375 -104.140625 C 51.21875 -105.316406 48.316406 -105.679688 45.671875 -105.234375 C 43.023438 -104.796875 40.671875 -102.960938 38.609375 -99.734375 C 36.703125 -96.492188 36.148438 -93.660156 36.953125 -91.234375 C 37.765625 -88.804688 39.421875 -86.707031 41.921875 -84.9375 C 44.421875 -83.175781 47.320312 -81.707031 50.625 -80.53125 C 53.9375 -79.351562 57.140625 -78.320312 60.234375 -77.4375 C 63.328125 -76.5625 65.828125 -75.753906 67.734375 -75.015625 C 73.328125 -72.953125 78.769531 -70.453125 84.0625 -67.515625 C 89.351562 -64.578125 93.617188 -60.457031 96.859375 -55.15625 C 101.273438 -47.800781 102.859375 -40.925781 101.609375 -34.53125 C 100.359375 -28.132812 97.378906 -22.472656 92.671875 -17.546875 C 87.960938 -12.617188 82.375 -8.679688 75.90625 -5.734375 Z M 75.90625 -5.734375 "/></g></g></g><g fill="#ff3131" fill-opacity="1"><g transform="translate(229.915286, 180.519763)"><g><path d="M 75.90625 -5.734375 C 67.8125 -1.910156 59.644531 0 51.40625 0 C 46.695312 0 41.507812 -0.660156 35.84375 -1.984375 C 30.1875 -3.304688 24.671875 -5 19.296875 -7.0625 C 13.929688 -9.125 9.191406 -11.332031 5.078125 -13.6875 C 1.984375 -15.445312 0.363281 -17.242188 0.21875 -19.078125 C 0.0703125 -20.921875 0.734375 -22.832031 2.203125 -24.8125 C 3.671875 -26.800781 5.070312 -28.972656 6.40625 -31.328125 C 6.84375 -32.066406 7.316406 -32.765625 7.828125 -33.421875 C 8.347656 -34.085938 8.898438 -34.640625 9.484375 -35.078125 C 11.109375 -36.253906 12.800781 -36.617188 14.5625 -36.171875 C 16.320312 -35.734375 18.046875 -35 19.734375 -33.96875 C 21.429688 -32.945312 22.941406 -32.066406 24.265625 -31.328125 C 28.828125 -28.828125 33.828125 -26.988281 39.265625 -25.8125 C 44.710938 -24.632812 50.007812 -24.191406 55.15625 -24.484375 C 58.976562 -24.785156 62.507812 -25.632812 65.75 -27.03125 C 68.988281 -28.425781 70.898438 -30.375 71.484375 -32.875 C 72.078125 -35.375 70.3125 -38.316406 66.1875 -41.703125 C 60.75 -45.960938 54.976562 -49.488281 48.875 -52.28125 C 42.769531 -55.082031 36.476562 -57.515625 30 -59.578125 C 23.96875 -61.484375 19.113281 -64.347656 15.4375 -68.171875 C 11.757812 -72.003906 9.148438 -76.269531 7.609375 -80.96875 C 6.066406 -85.675781 5.585938 -90.238281 6.171875 -94.65625 C 6.910156 -99.363281 8.75 -103.847656 11.6875 -108.109375 C 14.632812 -112.378906 18.3125 -116.128906 22.71875 -119.359375 C 27.132812 -122.597656 31.914062 -124.804688 37.0625 -125.984375 C 40.007812 -126.722656 42.878906 -127.273438 45.671875 -127.640625 C 48.460938 -128.003906 51.257812 -128.1875 54.0625 -128.1875 C 59.351562 -128.1875 64.570312 -127.5625 69.71875 -126.3125 C 74.863281 -125.0625 79.789062 -123.332031 84.5 -121.125 C 88.769531 -119.21875 91.820312 -117.414062 93.65625 -115.71875 C 95.5 -114.03125 96.160156 -112.007812 95.640625 -109.65625 C 95.128906 -107.300781 93.40625 -103.992188 90.46875 -99.734375 C 88.257812 -96.492188 85.753906 -94.6875 82.953125 -94.3125 C 80.160156 -93.945312 77.144531 -94.351562 73.90625 -95.53125 C 70.675781 -96.707031 67.40625 -98.140625 64.09375 -99.828125 C 60.78125 -101.523438 57.539062 -102.960938 54.375 -104.140625 C 51.21875 -105.316406 48.316406 -105.679688 45.671875 -105.234375 C 43.023438 -104.796875 40.671875 -102.960938 38.609375 -99.734375 C 36.703125 -96.492188 36.148438 -93.660156 36.953125 -91.234375 C 37.765625 -88.804688 39.421875 -86.707031 41.921875 -84.9375 C 44.421875 -83.175781 47.320312 -81.707031 50.625 -80.53125 C 53.9375 -79.351562 57.140625 -78.320312 60.234375 -77.4375 C 63.328125 -76.5625 65.828125 -75.753906 67.734375 -75.015625 C 73.328125 -72.953125 78.769531 -70.453125 84.0625 -67.515625 C 89.351562 -64.578125 93.617188 -60.457031 96.859375 -55.15625 C 101.273438 -47.800781 102.859375 -40.925781 101.609375 -34.53125 C 100.359375 -28.132812 97.378906 -22.472656 92.671875 -17.546875 C 87.960938 -12.617188 82.375 -8.679688 75.90625 -5.734375 Z M 75.90625 -5.734375 "/></g></g></g></svg>